<svg width="14" height="14" viewBox="0 0 14 14" fill="none" xmlns="http://www.w3.org/2000/svg">
<path d="M13.3254 0H3.95369C3.83718 0 3.72545 0.0462831 3.64306 0.128668C3.56068 0.211052 3.51439 0.32279 3.51439 0.439299V3.51439H0.439299C0.32279 3.51439 0.211052 3.56068 0.128668 3.64306C0.0462831 3.72545 0 3.83718 0 3.95369V13.3254C0 13.4419 0.0462831 13.5537 0.128668 13.636C0.211052 13.7184 0.32279 13.7647 0.439299 13.7647H9.81101C9.92752 13.7647 10.0393 13.7184 10.1216 13.636C10.204 13.5537 10.2503 13.4419 10.2503 13.3254V10.2503H13.3254C13.4419 10.2503 13.5537 10.204 13.636 10.1216C13.7184 10.0393 13.7647 9.92752 13.7647 9.81101V0.439299C13.7647 0.32279 13.7184 0.211052 13.636 0.128668C13.5537 0.0462831 13.4419 0 13.3254 0ZM9.37171 12.8861H0.878598V4.39299H9.37171V12.8861ZM12.8861 9.37171H10.2503V3.95369C10.2503 3.83718 10.204 3.72545 10.1216 3.64306C10.0393 3.56068 9.92752 3.51439 9.81101 3.51439H4.39299V0.878598H12.8861V9.37171Z" fill="#B0B0B0"/>
</svg>
