<svg width="24" height="24" viewBox="0 0 24 24" fill="none" xmlns="http://www.w3.org/2000/svg">
<path d="M20.7844 12.5344L16.8469 16.4719C16.7029 16.6095 16.5117 16.6867 16.3125 16.6875C16.1638 16.6873 16.0185 16.6428 15.8951 16.5598C15.7717 16.4768 15.6758 16.3589 15.6195 16.2213C15.5632 16.0836 15.5492 15.9323 15.5791 15.7867C15.609 15.641 15.6815 15.5075 15.7875 15.4031L18.4406 12.75H9.75C9.55109 12.75 9.36032 12.671 9.21967 12.5303C9.07902 12.3897 9 12.1989 9 12C9 11.8011 9.07902 11.6103 9.21967 11.4697C9.36032 11.329 9.55109 11.25 9.75 11.25H18.4406L15.7875 8.59687C15.6458 8.45639 15.5657 8.26537 15.5648 8.06581C15.5639 7.86626 15.6423 7.67454 15.7828 7.53281C15.9233 7.39109 16.1143 7.31097 16.3139 7.31009C16.5134 7.30921 16.7051 7.38764 16.8469 7.52813L20.7844 11.4656C20.9252 11.6078 21.0042 11.7999 21.0042 12C21.0042 12.2001 20.9252 12.3922 20.7844 12.5344ZM13.3125 19.5H4.5V4.5H13.3125C13.5114 4.5 13.7022 4.42098 13.8428 4.28033C13.9835 4.13968 14.0625 3.94891 14.0625 3.75C14.0625 3.55109 13.9835 3.36032 13.8428 3.21967C13.7022 3.07902 13.5114 3 13.3125 3H4.5C4.10218 3 3.72064 3.15804 3.43934 3.43934C3.15804 3.72064 3 4.10218 3 4.5V19.5C3 19.8978 3.15804 20.2794 3.43934 20.5607C3.72064 20.842 4.10218 21 4.5 21H13.3125C13.5114 21 13.7022 20.921 13.8428 20.7803C13.9835 20.6397 14.0625 20.4489 14.0625 20.25C14.0625 20.0511 13.9835 19.8603 13.8428 19.7197C13.7022 19.579 13.5114 19.5 13.3125 19.5Z" fill="white"/>
</svg>
