<svg width="40" height="40" viewBox="0 0 40 40" fill="none" xmlns="http://www.w3.org/2000/svg">
<path fill-rule="evenodd" clip-rule="evenodd" d="M4.6773 20.6477L11.0626 12.7315C12.19 10.8687 13.7707 9.24254 15.7605 8.03379C22.359 4.0253 30.9577 6.12494 34.9662 12.7235C38.9747 19.322 36.875 27.9207 30.2765 31.9291C28.0684 33.2705 25.6363 33.9279 23.2271 33.9616C23.1244 33.9841 23.0178 34.0026 22.9069 34.0168C20.4519 34.332 7.94604 33.7936 2 33.4849L9.08629 21.1671C9.08292 21.1272 9.07973 21.0873 9.07671 21.0474L4.6773 20.6477ZM31.6741 14.7125C28.8367 10.0416 22.75 8.55537 18.0791 11.3928C13.4082 14.2303 11.922 20.317 14.7594 24.9879C17.5969 29.6587 23.6836 31.145 28.3545 28.3075C33.0253 25.4701 34.5116 19.3834 31.6741 14.7125Z" fill="url(#paint0_linear_487_4372)"/>
<defs>
<linearGradient id="paint0_linear_487_4372" x1="19.5" y1="5.99995" x2="19.5" y2="34.1125" gradientUnits="userSpaceOnUse">
<stop stop-color="#FECAFF"/>
<stop offset="1" stop-color="#FB37FF"/>
</linearGradient>
</defs>
</svg>
