<svg width="40" height="40" viewBox="0 0 40 40" fill="none" xmlns="http://www.w3.org/2000/svg">
<circle cx="20" cy="20" r="20" fill="white"/>
<path d="M19.9443 35.2327C13.6732 35.0993 9.9557 31.9526 8.88086 30.3959H9.55639C9.58662 30.3959 9.61561 30.3839 9.63698 30.3625L11.2013 28.7982C11.4587 28.5408 11.8727 28.5302 12.1429 28.7741L13.9075 30.3665C13.9285 30.3854 13.9557 30.3959 13.9839 30.3959H31.0634C29.9701 32.0638 26.2155 35.3661 19.9443 35.2327Z" fill="black"/>
<path d="M6.3232 26.6713C5.65605 25.515 5.22982 23.6321 5.1001 22.8353H15.1623C15.3409 22.8353 15.5124 22.7654 15.6401 22.6406L17.348 20.9725C17.6159 20.7108 18.0445 20.7133 18.3093 20.9781L20.0218 22.6906C20.15 22.8188 20.3239 22.8908 20.5053 22.8908H34.9548C34.7325 24.3586 33.9726 26.0227 33.6205 26.6713H18.1147C17.9333 26.6713 17.7594 26.5993 17.6312 26.471L16.2454 25.0853C15.9833 24.8232 15.5601 24.8176 15.2912 25.0727L13.8041 26.4836C13.677 26.6041 13.5086 26.6713 13.3334 26.6713H6.3232Z" fill="black"/>
<path d="M18.8743 18.7767H4.87793C4.87793 16.9532 5.39682 15.4224 5.65627 14.885H20.8202C20.9713 14.885 21.1162 14.825 21.2231 14.7181L22.8107 13.1305C23.0374 12.9038 23.4064 12.9086 23.6271 13.1412L25.1129 14.7074C25.2205 14.8208 25.37 14.885 25.5263 14.885H34.3435C34.8772 16.2193 35.0848 18.0354 35.1218 18.7767H23.6828C23.5317 18.7767 23.3868 18.7167 23.2799 18.6098L21.6815 17.0114C21.459 16.7889 21.0982 16.7889 20.8756 17.0114L19.2773 18.6098C19.1704 18.7167 19.0254 18.7767 18.8743 18.7767Z" fill="black"/>
<path d="M24.0786 10.8825H7.93604C8.65878 9.60377 12.7154 4.87852 20.2782 4.87817C27.0053 4.87787 30.7672 8.78838 32.2312 10.8825H29.1717C28.8569 10.8825 28.5596 10.738 28.3651 10.4905L27.5528 9.4566C27.1729 8.97305 26.4558 8.93018 26.0209 9.36502L24.8039 10.582C24.6115 10.7744 24.3506 10.8825 24.0786 10.8825Z" fill="black"/>
</svg>
