<svg width="57" height="57" viewBox="0 0 57 57" fill="none" xmlns="http://www.w3.org/2000/svg">
<circle cx="28.5" cy="28.5" r="27.1974" fill="black" stroke="white" stroke-width="1.39474"/>
<circle cx="28.4998" cy="28.5001" r="25.0278" fill="black" stroke="url(#paint0_angular_44_2928)" stroke-width="0.420635"/>
<g filter="url(#filter0_d_44_2928)">
<circle cx="28.5001" cy="28.5001" r="23.9762" fill="black"/>
<circle cx="28.5001" cy="28.5001" r="23.7659" stroke="url(#paint1_angular_44_2928)" stroke-width="0.420635"/>
</g>
<circle cx="28" cy="28" r="19" fill="white"/>
<path d="M27.938 45.1244C20.888 44.9744 16.7088 41.437 15.5005 39.687H16.2556C16.2924 39.687 16.3276 39.6724 16.3536 39.6464L18.0672 37.9327C18.38 37.6199 18.8832 37.607 19.2116 37.9034L21.1484 39.6513C21.1739 39.6742 21.207 39.687 21.2412 39.687H40.438C39.2088 41.562 34.988 45.2744 27.938 45.1244Z" fill="black"/>
<path d="M12.625 35.4996C11.875 34.1996 11.3958 32.0829 11.25 31.1871H22.5365C22.7535 31.1871 22.9619 31.1022 23.1172 30.9505L24.9749 29.136C25.3005 28.8179 25.8214 28.821 26.1433 29.1429L28.0066 31.0062C28.1624 31.162 28.3738 31.2496 28.5942 31.2496H44.8125C44.5625 32.8996 43.7083 34.7704 43.3125 35.4996H25.9067C25.6863 35.4996 25.4749 35.412 25.3191 35.2562L23.8224 33.7595C23.5039 33.4409 22.9895 33.4342 22.6627 33.7442L21.053 35.2714C20.8986 35.4179 20.6938 35.4996 20.481 35.4996H12.625Z" fill="black"/>
<path d="M26.7131 26.6244H11C11 24.5744 11.5833 22.8536 11.875 22.2494H28.9006C29.0843 22.2494 29.2605 22.1764 29.3903 22.0465L31.1222 20.3147C31.3977 20.0392 31.8462 20.0451 32.1144 20.3277L33.7327 22.0335C33.8634 22.1713 34.0451 22.2494 34.2351 22.2494H44.125C44.725 23.7494 44.9583 25.7911 45 26.6244H32.1619C31.9782 26.6244 31.802 26.5514 31.6722 26.4215L29.9272 24.6766C29.6568 24.4061 29.2182 24.4061 28.9478 24.6766L27.2028 26.4215C27.073 26.5514 26.8968 26.6244 26.7131 26.6244Z" fill="black"/>
<path d="M32.5471 17.75H14.4385C15.251 16.3125 19.8114 11.0004 28.3135 11C35.876 10.9997 40.1051 15.3958 41.751 17.75H38.3569C37.9743 17.75 37.613 17.5744 37.3766 17.2736L36.5566 16.2299C36.0949 15.6422 35.2234 15.5901 34.6949 16.1186L33.4286 17.3849C33.1948 17.6187 32.8777 17.75 32.5471 17.75Z" fill="black"/>
<defs>
<filter id="filter0_d_44_2928" x="2.84139" y="2.84133" width="51.3172" height="51.3175" filterUnits="userSpaceOnUse" color-interpolation-filters="sRGB">
<feFlood flood-opacity="0" result="BackgroundImageFix"/>
<feColorMatrix in="SourceAlpha" type="matrix" values="0 0 0 0 0 0 0 0 0 0 0 0 0 0 0 0 0 0 127 0" result="hardAlpha"/>
<feOffset/>
<feGaussianBlur stdDeviation="0.84127"/>
<feComposite in2="hardAlpha" operator="out"/>
<feColorMatrix type="matrix" values="0 0 0 0 0 0 0 0 0 0 0 0 0 0 0 0 0 0 0.25 0"/>
<feBlend mode="normal" in2="BackgroundImageFix" result="effect1_dropShadow_44_2928"/>
<feBlend mode="normal" in="SourceGraphic" in2="effect1_dropShadow_44_2928" result="shape"/>
</filter>
<radialGradient id="paint0_angular_44_2928" cx="0" cy="0" r="1" gradientUnits="userSpaceOnUse" gradientTransform="translate(28.4998 28.5001) rotate(90) scale(25.2381)">
<stop offset="0.119792" stop-color="white" stop-opacity="0.67"/>
<stop offset="0.317708" stop-color="#8000FF" stop-opacity="0.21"/>
<stop offset="0.489583" stop-color="#8000FF" stop-opacity="0.74"/>
<stop offset="0.65625" stop-color="#8000FF"/>
<stop offset="0.859375" stop-color="#8000FF" stop-opacity="0.33"/>
<stop offset="1" stop-color="#8000FF"/>
</radialGradient>
<radialGradient id="paint1_angular_44_2928" cx="0" cy="0" r="1" gradientUnits="userSpaceOnUse" gradientTransform="translate(28.5001 28.5001) rotate(90) scale(23.9762)">
<stop offset="0.119792" stop-color="white" stop-opacity="0.67"/>
<stop offset="0.317708" stop-color="#8000FF" stop-opacity="0.21"/>
<stop offset="0.489583" stop-color="#8000FF" stop-opacity="0.74"/>
<stop offset="0.65625" stop-color="#8000FF"/>
<stop offset="0.859375" stop-color="#8000FF" stop-opacity="0.33"/>
<stop offset="1" stop-color="#8000FF"/>
</radialGradient>
</defs>
</svg>
